<svg version="1.1" xmlns="http://www.w3.org/2000/svg" x="0px" y="0px" viewBox="0 0 512 512" enable-background="new 0 0 512 512" xml:space="preserve">
<path fill="#C7C7C7" d="M432.1,194.3l-28.4,122.4h49.6l8.6-37.2h30.3l8.1-34.8h-30.2l3-13.2h30.3l8.6-37.2H432.1z"/>
<path fill="#C7C7C7" d="M345.4,194.3l-28.1,122.4h75.5l9.7-41.8h-25.9l18.6-80.6L345.4,194.3z"/>
<path fill="#C7C7C7" d="M183,178.7l-35.6,154.7h154.7l35.6-154.7H183z"/>
<path fill="#C7C7C7" d="M125.5,194.2l-10.2,45.2l-10.2-45.2H62.4l-10.1,45l-10.2-45H0l27.7,122.5h43.7L82.6,267l11.3,49.7h46l27.7-122.5L125.5,194.2z"/>
<circle fill="#E10000" cx="242.6" cy="256" r="66.7"/>
</svg>
